<?xml version="1.0" encoding="UTF-8"?>
<svg id="Layer_1" data-name="Layer 1" xmlns="http://www.w3.org/2000/svg" xmlns:xlink="http://www.w3.org/1999/xlink" viewBox="0 0 1000 1000">
  <defs>
    <style>
      .cls-1 {
        fill: #fff;
      }

      .cls-2 {
        fill: url(#linear-gradient);
      }
    </style>
    <linearGradient id="linear-gradient" x1="0" y1="500" x2="1000" y2="500" gradientUnits="userSpaceOnUse">
      <stop offset="0" stop-color="#6d6aff"/>
      <stop offset=".1" stop-color="#6c79ff"/>
      <stop offset=".3" stop-color="#6ba0ff"/>
      <stop offset=".54" stop-color="#6adbff"/>
      <stop offset=".99" stop-color="#8115ff"/>
    </linearGradient>
  </defs>
  <rect class="cls-2" width="1000" height="1000" rx="123.27" ry="123.27"/>
  <rect x="48.81" y="48.81" width="902.38" height="902.38" rx="95.01" ry="95.01"/>
  <g>
    <path class="cls-1" d="m306.26,632.31h-70.11l-59.52-110.81h-13.56v110.81h-62.91v-307.03h119.88c14.68,0,27.67,3.98,38.97,11.92,11.3,7.95,20.26,18.24,26.9,30.88,6.64,12.64,9.96,26.58,9.96,41.82v26.77c0,7.56-.92,15.51-2.75,23.84-5.08,23.19-15.89,40.33-32.41,51.4-6.21,4.17-11.16,6.78-14.83,7.82l60.36,112.57Zm-86.21-167.29c2.12,0,4.8-2.35,8.05-7.04,3.25-4.69,4.87-11.79,4.87-21.3v-26.77c0-10.81-3.89-19.61-11.65-26.38-1.41-1.3-3.6-1.95-6.57-1.95h-51.89l.21,83.45h56.98Z"/>
    <path class="cls-1" d="m404.58,634.46c-13.27,0-26.69-1.7-40.24-5.08-8.47-2.35-15.67-5.47-21.6-9.38-30.08-19.93-45.11-49.9-45.11-89.9v-99.87c0-40.13,15.04-70.1,45.11-89.9,5.93-3.91,13.13-7.04,21.6-9.38,13.56-3.39,26.97-5.08,40.24-5.08s26.33,1.63,39.61,4.89c8.75,2.61,15.74,5.86,20.97,9.77,13.69,9.51,24.64,22.15,32.83,37.92,6.64,13.94,9.96,31.21,9.96,51.79v99.87c0,20.46-3.32,37.79-9.96,51.99-8.19,15.63-19.14,28.27-32.83,37.91-13.84,9.64-34.03,14.46-60.58,14.46Zm-1.27-60.19c8.05,0,16.1-1.5,24.15-4.5,12-5.6,18-18.83,18-39.67v-99.87c0-21.37-6-34.46-18-39.28-7.91-3.26-16.03-4.89-24.36-4.89-7.62,0-15.25,1.44-22.88,4.3-4.66,1.95-8.33,4.56-11.01,7.82-6.21,8.47-9.32,19.15-9.32,32.05v99.87c0,13.03,3.1,23.71,9.32,32.05,2.97,3.65,6.57,6.25,10.8,7.82,7.91,2.87,15.67,4.3,23.3,4.3Z"/>
    <path class="cls-1" d="m724.45,632.31h-64.18l-12.71-55.11h-72.86l-12.71,55.11h-64.39l71.17-307.03h84.93l70.74,307.03Zm-90.87-114.53l-22.45-97.91-22.66,97.91h45.12Z"/>
    <path class="cls-1" d="m804.56,634.46c-30.92,0-54.15-6.97-69.69-20.91-15.54-13.94-23.3-33.09-23.3-57.46v-20.91h66.93v24.23c0,16.55,8.47,24.89,25.42,25.02,7.91,0,14.12-1.82,18.64-5.47,4.52-3.65,6.78-10.42,6.78-20.33,0-11.73-3.46-22.21-10.38-31.46-7.06-9.12-19.91-20-38.55-32.64-24.99-17.07-42.57-32.83-52.74-47.3-10.17-14.33-15.25-30.36-15.25-48.08,0-24.1,8.12-43.06,24.36-56.87,16.1-13.81,39.4-20.72,69.9-20.72s53.45,6.91,68.84,20.72c15.39,13.94,23.09,33.16,23.09,57.65v16.42h-66.93v-19.35c0-9.64-2.12-16.22-6.36-19.74-4.24-3.65-10.31-5.47-18.21-5.47-16.24,0-24.36,8.14-24.36,24.43,0,10.16,3.6,19.67,10.8,28.53,7.2,8.86,20.19,19.74,38.97,32.64,24.99,16.94,42.43,32.71,52.32,47.3,9.88,14.59,14.83,31.47,14.83,50.62,0,24.76-8.12,44.17-24.36,58.24-16.38,13.94-39.96,20.91-70.74,20.91Z"/>
  </g>
</svg>