<?xml version="1.0" encoding="UTF-8"?>
<svg id="Layer_1" data-name="Layer 1" xmlns="http://www.w3.org/2000/svg" xmlns:xlink="http://www.w3.org/1999/xlink" viewBox="0 0 1000 452.94">
  <defs>
    <style>
      .cls-1 {
        fill: #fff;
      }

      .cls-2 {
        fill: url(#linear-gradient);
      }
    </style>
    <linearGradient id="linear-gradient" x1="0" y1="226.47" x2="1000" y2="226.47" gradientUnits="userSpaceOnUse">
      <stop offset="0" stop-color="#6d6aff"/>
      <stop offset=".1" stop-color="#6c79ff"/>
      <stop offset=".3" stop-color="#6ba0ff"/>
      <stop offset=".54" stop-color="#6adbff"/>
      <stop offset="1" stop-color="#8115ff"/>
    </linearGradient>
  </defs>
  <rect class="cls-2" x="0" width="1000" height="452.94" rx="51.11" ry="51.11"/>
  <rect x="24.74" y="23.09" width="953.87" height="406.77" rx="25.05" ry="25.05"/>
  <g>
    <path class="cls-1" d="m295.04,346.7h-57.73l-49.01-87.01h-11.16v87.01h-51.8V105.62h98.72c12.09,0,22.79,3.12,32.09,9.36,9.3,6.24,16.68,14.32,22.15,24.25,5.46,9.92,8.2,20.87,8.2,32.84v21.02c0,5.93-.76,12.18-2.27,18.72-4.19,18.21-13.08,31.67-26.68,40.36-5.12,3.28-9.19,5.32-12.21,6.14l49.71,88.39Zm-70.98-131.36c1.74,0,3.95-1.84,6.63-5.52,2.67-3.68,4.01-9.26,4.01-16.73v-21.02c0-8.49-3.2-15.4-9.59-20.72-1.16-1.02-2.97-1.53-5.41-1.53h-42.73l.17,65.53h46.92Z"/>
    <path class="cls-1" d="m404.22,348.39c-10.93,0-21.98-1.33-33.14-3.99-6.98-1.84-12.91-4.3-17.79-7.37-24.77-15.65-37.15-39.18-37.15-70.59v-78.42c0-31.51,12.38-55.04,37.15-70.59,4.88-3.07,10.81-5.52,17.79-7.37,11.16-2.66,22.21-3.99,33.14-3.99s21.68,1.28,32.61,3.84c7.21,2.05,12.96,4.6,17.27,7.67,11.28,7.47,20.29,17.39,27.03,29.77,5.46,10.95,8.2,24.5,8.2,40.67v78.42c0,16.06-2.73,29.67-8.2,40.82-6.74,12.28-15.76,22.2-27.03,29.77-11.4,7.57-28.02,11.36-49.88,11.36Zm-1.05-47.27c6.63,0,13.26-1.17,19.88-3.53,9.88-4.4,14.82-14.78,14.82-31.15v-78.42c0-16.78-4.94-27.06-14.82-30.85-6.51-2.56-13.2-3.84-20.06-3.84-6.28,0-12.56,1.13-18.84,3.38-3.84,1.53-6.86,3.58-9.07,6.14-5.12,6.65-7.67,15.04-7.67,25.17v78.42c0,10.23,2.56,18.62,7.67,25.17,2.44,2.87,5.41,4.91,8.89,6.14,6.51,2.25,12.91,3.38,19.19,3.38Z"/>
    <path class="cls-1" d="m696.01,346.85h-53.02l-40.29-166.81-40.46,166.81h-53.19l58.6-241.08h69.94l58.43,241.08Z"/>
    <path class="cls-1" d="m790.19,348.39c-25.46,0-44.59-5.47-57.38-16.42-12.79-10.95-19.18-25.99-19.18-45.12v-16.42h55.11v19.03c0,12.99,6.98,19.54,20.93,19.64,6.51,0,11.63-1.43,15.35-4.3,3.72-2.86,5.58-8.18,5.58-15.96,0-9.21-2.85-17.44-8.55-24.71-5.82-7.16-16.39-15.7-31.74-25.63-20.58-13.4-35.06-25.78-43.43-37.14-8.37-11.25-12.56-23.84-12.56-37.75,0-18.93,6.69-33.81,20.06-44.66,13.25-10.84,32.44-16.27,57.55-16.27s44.01,5.42,56.68,16.27c12.67,10.95,19.01,26.04,19.01,45.27v12.89h-55.11v-15.19c0-7.57-1.74-12.74-5.23-15.5-3.49-2.86-8.49-4.3-15-4.3-13.37,0-20.06,6.4-20.06,19.18,0,7.98,2.96,15.45,8.89,22.41,5.93,6.96,16.63,15.5,32.09,25.63,20.58,13.3,34.94,25.68,43.08,37.14,8.14,11.46,12.21,24.71,12.21,39.75,0,19.44-6.69,34.68-20.06,45.73-13.49,10.95-32.91,16.42-58.25,16.42Z"/>
  </g>
</svg>