<?xml version="1.0" encoding="UTF-8"?>
<svg id="Layer_1" data-name="Layer 1" xmlns="http://www.w3.org/2000/svg" xmlns:xlink="http://www.w3.org/1999/xlink" viewBox="0 0 1000 1000">
  <defs>
    <style>
      .cls-1 {
        fill: #fff;
      }

      .cls-2 {
        fill: url(#linear-gradient);
      }
    </style>
    <linearGradient id="linear-gradient" x1="0" y1="500" x2="1000" y2="500" gradientUnits="userSpaceOnUse">
      <stop offset="0" stop-color="#6d6aff"/>
      <stop offset=".1" stop-color="#6c79ff"/>
      <stop offset=".3" stop-color="#6ba0ff"/>
      <stop offset=".54" stop-color="#6adbff"/>
      <stop offset=".99" stop-color="#8115ff"/>
    </linearGradient>
  </defs>
  <rect class="cls-2" width="1000" height="1000" rx="123.27" ry="123.27"/>
  <rect x="33.81" y="27.32" width="936.64" height="943.13" rx="95.01" ry="95.01"/>
  <g>
    <g>
      <path class="cls-1" d="m287.63,544.08h-59.36l-50.39-85.63h-11.48v85.63h-53.26v-237.26h101.51c12.43,0,23.43,3.07,33,9.21,9.56,6.14,17.15,14.1,22.78,23.86,5.62,9.77,8.43,20.54,8.43,32.32v20.69c0,5.84-.78,11.98-2.33,18.43-4.3,17.92-13.45,31.16-27.44,39.72-5.26,3.22-9.45,5.24-12.55,6.04l51.11,86.99Zm-72.99-129.28c1.79,0,4.06-1.81,6.81-5.44,2.75-3.62,4.12-9.11,4.12-16.46v-20.69c0-8.36-3.29-15.15-9.86-20.39-1.2-1-3.05-1.51-5.56-1.51h-43.94l.18,64.49h48.24Z"/>
      <path class="cls-1" d="m399.89,545.74c-11.24,0-22.6-1.31-34.07-3.93-7.17-1.81-13.27-4.23-18.29-7.25-25.47-15.4-38.2-38.56-38.2-69.47v-77.17c0-31.01,12.73-54.17,38.2-69.47,5.02-3.02,11.12-5.44,18.29-7.25,11.48-2.62,22.83-3.93,34.07-3.93s22.3,1.26,33.54,3.78c7.41,2.02,13.33,4.53,17.75,7.55,11.6,7.35,20.86,17.12,27.8,29.3,5.62,10.77,8.43,24.12,8.43,40.02v77.17c0,15.81-2.81,29.2-8.43,40.17-6.94,12.08-16.2,21.85-27.8,29.3-11.72,7.45-28.81,11.18-51.29,11.18Zm-1.08-46.52c6.81,0,13.63-1.16,20.44-3.47,10.16-4.33,15.24-14.55,15.24-30.66v-77.17c0-16.51-5.08-26.63-15.24-30.36-6.7-2.52-13.57-3.78-20.62-3.78-6.46,0-12.91,1.11-19.37,3.32-3.95,1.51-7.06,3.53-9.33,6.04-5.26,6.55-7.89,14.8-7.89,24.77v77.17c0,10.07,2.63,18.33,7.89,24.77,2.51,2.82,5.56,4.83,9.15,6.04,6.69,2.22,13.27,3.32,19.73,3.32Z"/>
      <path class="cls-1" d="m699.93,544.23h-54.52l-41.43-164.17-41.61,164.17h-54.7l60.26-237.26h71.92l60.08,237.26Z"/>
      <path class="cls-1" d="m796.77,545.74c-26.18,0-45.85-5.38-59-16.16-13.15-10.77-19.73-25.57-19.73-44.4v-16.16h56.67v18.73c0,12.79,7.17,19.23,21.52,19.33,6.69,0,11.95-1.41,15.78-4.23,3.83-2.82,5.74-8.05,5.74-15.71,0-9.06-2.93-17.17-8.79-24.32-5.98-7.05-16.86-15.45-32.64-25.22-21.16-13.19-36.05-25.37-44.66-36.55-8.61-11.07-12.91-23.46-12.91-37.15,0-18.63,6.87-33.28,20.62-43.95,13.63-10.67,33.36-16.01,59.18-16.01s45.25,5.34,58.29,16.01c13.03,10.77,19.55,25.62,19.55,44.55v12.69h-56.67v-14.95c0-7.45-1.79-12.54-5.38-15.25-3.59-2.82-8.73-4.23-15.42-4.23-13.75,0-20.62,6.29-20.62,18.88,0,7.85,3.05,15.2,9.15,22.05,6.1,6.85,17.1,15.25,33,25.22,21.16,13.09,35.93,25.27,44.3,36.55,8.37,11.28,12.55,24.32,12.55,39.12,0,19.13-6.88,34.13-20.62,45.01-13.87,10.78-33.84,16.16-59.9,16.16Z"/>
    </g>
    <g>
      <path class="cls-1" d="m135.21,677.99v-101.77h18.41v101.77h-18.41Z"/>
      <path class="cls-1" d="m231.13,677.99h-17.48v-37.63c0-7.96-.37-13.11-1.12-15.45-.75-2.34-1.96-4.15-3.64-5.45-1.68-1.29-3.7-1.94-6.06-1.94-3.03,0-5.74.93-8.15,2.78-2.41,1.85-4.05,4.3-4.94,7.36-.89,3.05-1.34,8.7-1.34,16.94v33.39h-17.48v-73.73h16.23v10.83c5.76-8.33,13.02-12.5,21.77-12.5,3.86,0,7.38.78,10.57,2.33,3.19,1.55,5.61,3.53,7.25,5.94,1.64,2.41,2.78,5.14,3.42,8.19.64,3.05.96,7.43.96,13.12v45.82Z"/>
      <path class="cls-1" d="m242.69,656.95l17.54-2.99c.75,3.8,2.26,6.68,4.54,8.64,2.28,1.97,5.47,2.95,9.58,2.95,4.52,0,7.92-.92,10.2-2.78,1.53-1.29,2.3-3.03,2.3-5.21,0-1.48-.42-2.71-1.24-3.68-.87-.92-2.82-1.78-5.85-2.57-14.1-3.47-23.04-6.64-26.81-9.51-5.22-3.98-7.84-9.51-7.84-16.59,0-6.39,2.26-11.75,6.78-16.11,4.52-4.35,11.53-6.53,21.02-6.53s15.76,1.64,20.15,4.93c4.4,3.29,7.42,8.15,9.08,14.58l-16.48,3.4c-.71-2.87-2.04-5.07-4.01-6.6-1.97-1.53-4.78-2.29-8.43-2.29-4.6,0-7.9.72-9.89,2.15-1.33,1.02-1.99,2.34-1.99,3.96,0,1.39.58,2.57,1.74,3.54,1.58,1.3,7.02,3.12,16.33,5.48,9.31,2.36,15.81,5.25,19.5,8.68,3.65,3.47,5.47,8.31,5.47,14.51,0,6.76-2.53,12.57-7.59,17.43-5.06,4.86-12.54,7.29-22.45,7.29-9,0-16.12-2.04-21.37-6.11-5.25-4.07-8.68-9.6-10.29-16.59Z"/>
      <path class="cls-1" d="m319.7,594.26v-18.05h17.48v18.05h-17.48Zm0,83.72v-73.73h17.48v73.73h-17.48Z"/>
      <path class="cls-1" d="m353.47,682.85l19.97,2.71c.33,2.59,1.1,4.37,2.3,5.35,1.66,1.39,4.27,2.08,7.84,2.08,4.56,0,7.98-.76,10.26-2.29,1.53-1.02,2.7-2.66,3.48-4.93.54-1.62.81-4.61.81-8.96v-10.76c-5.22,7.96-11.82,11.94-19.78,11.94-8.87,0-15.9-4.19-21.09-12.57-4.06-6.62-6.1-14.86-6.1-24.71,0-12.36,2.66-21.8,7.99-28.32,5.33-6.53,11.95-9.79,19.87-9.79s14.91,4,20.21,12.01v-10.34h16.36v66.16c0,8.7-.64,15.2-1.93,19.51-1.29,4.3-3.09,7.68-5.41,10.14-2.32,2.45-5.42,4.37-9.3,5.76-3.88,1.39-8.78,2.08-14.71,2.08-11.2,0-19.14-2.14-23.82-6.42-4.69-4.28-7.03-9.71-7.03-16.28,0-.65.02-1.43.06-2.36Zm15.61-43.25c0,7.82,1.36,13.55,4.07,17.18,2.72,3.63,6.06,5.45,10.05,5.45,4.27,0,7.88-1.86,10.82-5.59,2.94-3.72,4.42-9.24,4.42-16.56s-1.41-13.3-4.23-17.01c-2.82-3.7-6.39-5.55-10.7-5.55s-7.64,1.82-10.36,5.45c-2.72,3.63-4.07,9.18-4.07,16.63Z"/>
      <path class="cls-1" d="m450.32,576.21v37.42c5.64-7.36,12.38-11.04,20.21-11.04,4.02,0,7.65.83,10.89,2.5,3.23,1.67,5.67,3.8,7.31,6.39,1.64,2.59,2.76,5.46,3.36,8.61.6,3.15.9,8.03.9,14.65v43.25h-17.48v-38.95c0-7.73-.33-12.63-1-14.72-.66-2.08-1.83-3.74-3.51-4.96-1.68-1.23-3.78-1.84-6.31-1.84-2.9,0-5.49.79-7.77,2.36-2.28,1.57-3.95,3.95-5.01,7.12-1.06,3.17-1.59,7.86-1.59,14.06v36.93h-17.48v-101.77h17.48Z"/>
      <path class="cls-1" d="m541,604.26v15.55h-11.94v29.71c0,6.02.11,9.52.34,10.52.23,1,.75,1.82,1.55,2.46.81.65,1.79.97,2.96.97,1.62,0,3.96-.62,7.03-1.87l1.49,15.13c-4.06,1.94-8.67,2.92-13.81,2.92-3.15,0-5.99-.59-8.52-1.77-2.53-1.18-4.38-2.71-5.57-4.58-1.18-1.87-2-4.41-2.46-7.6-.37-2.27-.56-6.85-.56-13.75v-32.14h-8.02v-15.55h8.02v-14.65l17.54-11.39v26.03h11.94Z"/>
      <path class="cls-1" d="m583.98,644.87l17.91-1.94c1.08,6.71,3.27,11.64,6.56,14.79,3.3,3.15,7.74,4.72,13.34,4.72,5.93,0,10.4-1.4,13.4-4.2,3.01-2.8,4.51-6.07,4.51-9.82,0-2.41-.63-4.45-1.9-6.14-1.27-1.69-3.47-3.16-6.62-4.41-2.16-.83-7.07-2.31-14.74-4.44-9.87-2.73-16.79-6.09-20.78-10.07-5.6-5.6-8.4-12.43-8.4-20.48,0-5.18,1.32-10.03,3.95-14.54,2.63-4.51,6.43-7.95,11.38-10.31s10.94-3.54,17.94-3.54c11.45,0,20.06,2.8,25.84,8.4,5.78,5.6,8.82,13.08,9.11,22.42l-18.41.9c-.79-5.23-2.48-8.99-5.07-11.28-2.59-2.29-6.48-3.44-11.66-3.44s-9.54,1.23-12.56,3.68c-1.95,1.57-2.92,3.68-2.92,6.32,0,2.41.91,4.47,2.74,6.18,2.32,2.18,7.96,4.44,16.92,6.8,8.96,2.36,15.58,4.8,19.87,7.32,4.29,2.52,7.65,5.97,10.08,10.34,2.43,4.37,3.64,9.78,3.64,16.21,0,5.83-1.45,11.29-4.35,16.38-2.9,5.09-7.01,8.88-12.32,11.35-5.31,2.48-11.92,3.71-19.84,3.71-11.53,0-20.38-2.97-26.56-8.92-6.18-5.95-9.87-14.61-11.07-26Z"/>
      <path class="cls-1" d="m716.97,677.99v-11.04c-2.41,3.93-5.57,7.04-9.49,9.3-3.92,2.27-8.05,3.4-12.41,3.4s-8.42-1.09-11.94-3.26-6.08-5.23-7.65-9.16c-1.58-3.93-2.36-9.37-2.36-16.31v-46.65h17.48v33.88c0,10.37.32,16.72.96,19.06.64,2.34,1.81,4.19,3.51,5.55,1.7,1.37,3.86,2.05,6.47,2.05,2.99,0,5.66-.91,8.02-2.74,2.36-1.83,3.98-4.1,4.85-6.8.87-2.71,1.31-9.34,1.31-19.89v-31.1h17.48v73.73h-16.23Z"/>
      <path class="cls-1" d="m751.3,594.26v-18.05h17.48v18.05h-17.48Zm0,83.72v-73.73h17.48v73.73h-17.48Z"/>
      <path class="cls-1" d="m816.98,604.26v15.55h-11.94v29.71c0,6.02.11,9.52.34,10.52.23,1,.75,1.82,1.56,2.46.81.65,1.79.97,2.95.97,1.62,0,3.96-.62,7.03-1.87l1.49,15.13c-4.06,1.94-8.67,2.92-13.81,2.92-3.15,0-5.99-.59-8.52-1.77-2.53-1.18-4.38-2.71-5.57-4.58-1.18-1.87-2-4.41-2.46-7.6-.37-2.27-.56-6.85-.56-13.75v-32.14h-8.02v-15.55h8.02v-14.65l17.54-11.39v26.03h11.94Z"/>
      <path class="cls-1" d="m867.37,654.52l17.42,3.26c-2.24,7.13-5.78,12.55-10.61,16.28-4.83,3.73-10.88,5.59-18.13,5.59-11.49,0-19.99-4.19-25.5-12.57-4.35-6.71-6.53-15.18-6.53-25.41,0-12.22,2.86-21.79,8.58-28.71,5.72-6.92,12.96-10.38,21.71-10.38,9.83,0,17.58,3.62,23.26,10.87,5.68,7.24,8.4,18.34,8.15,33.29h-43.79c.12,5.79,1.53,10.29,4.23,13.5,2.69,3.22,6.05,4.82,10.08,4.82,2.74,0,5.04-.83,6.9-2.5,1.87-1.67,3.27-4.35,4.23-8.05Zm1-19.72c-.12-5.65-1.43-9.94-3.92-12.88s-5.52-4.41-9.08-4.41c-3.82,0-6.97,1.55-9.45,4.65-2.49,3.1-3.71,7.31-3.67,12.64h26.12Z"/>
    </g>
  </g>
</svg>