<?xml version="1.0" encoding="UTF-8"?>
<svg id="Layer_1" data-name="Layer 1" xmlns="http://www.w3.org/2000/svg" xmlns:xlink="http://www.w3.org/1999/xlink" viewBox="0 0 1000 500">
  <defs>
    <style>
      .cls-1 {
        fill: #fff;
      }

      .cls-2 {
        fill: url(#linear-gradient);
      }
    </style>
    <linearGradient id="linear-gradient" x1="0" y1="250" x2="1000" y2="250" gradientUnits="userSpaceOnUse">
      <stop offset="0" stop-color="#f1e88b"/>
      <stop offset=".09" stop-color="#e1e698"/>
      <stop offset=".26" stop-color="#bae2ba"/>
      <stop offset=".49" stop-color="#7adcf0"/>
      <stop offset=".54" stop-color="#6adbff"/>
      <stop offset="1" stop-color="#1c75bc"/>
    </linearGradient>
  </defs>
  <rect class="cls-2" width="1000" height="500"/>
  <rect x="25" y="25" width="950" height="450"/>
  <g>
    <path class="cls-1" d="m261.87,396.87h-67.79l-57.55-104.19h-13.11v104.19h-60.83V108.19h115.92c14.2,0,26.76,3.74,37.69,11.21,10.92,7.47,19.59,17.15,26.01,29.03,6.42,11.88,9.63,24.99,9.63,39.32v25.17c0,7.11-.89,14.58-2.66,22.42-4.92,21.81-15.36,37.92-31.34,48.33-6.01,3.92-10.79,6.37-14.34,7.35l58.37,105.84Zm-83.36-157.29c2.05,0,4.64-2.21,7.78-6.61,3.14-4.41,4.71-11.09,4.71-20.03v-25.17c0-10.17-3.76-18.44-11.26-24.81-1.37-1.22-3.48-1.84-6.35-1.84h-50.18l.2,78.46h55.09Z"/>
    <path class="cls-1" d="m390.08,398.89c-12.83,0-25.81-1.59-38.91-4.78-8.19-2.21-15.16-5.15-20.89-8.82-29.08-18.74-43.62-46.92-43.62-84.53v-93.9c0-37.73,14.54-65.9,43.62-84.53,5.74-3.67,12.7-6.62,20.89-8.82,13.11-3.18,26.08-4.78,38.91-4.78s25.46,1.53,38.3,4.59c8.46,2.45,15.22,5.51,20.28,9.19,13.24,8.94,23.83,20.83,31.75,35.65,6.42,13.11,9.63,29.34,9.63,48.7v93.9c0,19.23-3.21,35.53-9.63,48.88-7.92,14.7-18.5,26.58-31.75,35.65-13.38,9.06-32.91,13.6-58.58,13.6Zm-1.23-56.6c7.78,0,15.57-1.41,23.35-4.23,11.6-5.27,17.41-17.7,17.41-37.3v-93.9c0-20.09-5.8-32.4-17.41-36.93-7.65-3.06-15.5-4.59-23.55-4.59-7.37,0-14.75,1.35-22.12,4.04-4.51,1.84-8.06,4.29-10.65,7.35-6.01,7.96-9.01,18.01-9.01,30.14v93.9c0,12.25,3,22.3,9.01,30.14,2.87,3.43,6.35,5.88,10.45,7.35,7.64,2.7,15.16,4.04,22.53,4.04Z"/>
    <path class="cls-1" d="m732.73,397.05h-62.26l-47.31-199.74-47.52,199.74h-62.47l68.82-288.68h82.13l68.61,288.68Z"/>
    <path class="cls-1" d="m843.32,398.89c-29.9,0-52.36-6.55-67.38-19.66-15.02-13.11-22.53-31.11-22.53-54.02v-19.66h64.72v22.79c0,15.56,8.19,23.4,24.58,23.52,7.65,0,13.65-1.71,18.02-5.15,4.37-3.43,6.55-9.8,6.55-19.11,0-11.03-3.35-20.88-10.04-29.58-6.83-8.57-19.25-18.8-37.27-30.69-24.17-16.05-41.17-30.87-51-44.47-9.83-13.47-14.75-28.54-14.75-45.2,0-22.66,7.85-40.49,23.55-53.47,15.57-12.98,38.09-19.48,67.59-19.48s51.68,6.49,66.56,19.48c14.88,13.11,22.32,31.18,22.32,54.21v15.44h-64.72v-18.19c0-9.06-2.05-15.25-6.14-18.56-4.1-3.43-9.97-5.15-17.61-5.15-15.7,0-23.55,7.66-23.55,22.97,0,9.56,3.48,18.5,10.45,26.83,6.96,8.33,19.52,18.56,37.68,30.69,24.17,15.93,41.03,30.75,50.59,44.47,9.56,13.72,14.34,29.58,14.34,47.59,0,23.28-7.85,41.53-23.55,54.76-15.84,13.11-38.64,19.66-68.41,19.66Z"/>
  </g>
</svg>